<svg width="1024" height="1024" viewBox="0 0 1024 1024" fill="none" xmlns="http://www.w3.org/2000/svg">
<rect width="1024" height="1024" fill="white"/>
<rect x="54" y="54" width="917" height="917" rx="458.5" fill="url(#paint0_linear)"/>
<path d="M292.8 702H287.3L277.95 702.55L270.8 700.35H263.65L257.05 697.6L249.35 697.05L241.65 695.95L234.5 693.2L227.35 692.1L219.1 689.9L213.05 687.15L205.35 683.85L199.3 680.55L191.05 677.25L186.1 672.3L179.5 669L173.45 663.5L166.85 659.1L162.45 652.5L156.95 646.45L152.55 641.5L147.05 628.3L142.1 612.35L141 604.65L145.4 598.6L151.45 593.1L165.75 587.05L172.9 585.4L178.95 581L187.2 579.9L193.8 576.6L202.05 575.5L208.1 572.75L215.8 568.9L231.2 563.4L238.9 562.85L246.6 565.05L252.65 571.65L260.9 583.2L266.95 587.6L273 592.55L287.3 595.85L295 598.05H302.15L319.2 597.5H326.35L349.45 592.55L354.4 586.5L353.85 571.65L348.9 565.05L342.3 561.2L335.15 559L326.35 556.8L318.1 555.7L309.3 555.15L293.35 551.3L287.3 549.65L278.5 548.55L272.45 549.1L264.75 546.35L257.05 545.25L249.9 542.5L241.65 540.3L233.95 539.2L227.35 537L220.75 534.25L213.05 530.95L198.75 524.35L186.1 515.55L175.65 505.1L169.05 499.05L166.3 493L161.35 488.05L157.5 479.25L154.2 472.65L152 466.6L148.7 457.25L148.15 451.2L145.4 442.4L144.3 435.25V412.15L145.95 403.35L146.5 395.65L148.15 390.15L151.45 382.45L152 375.85L156.4 369.25L159.15 361L164.65 354.95L172.35 342.85L177.85 337.9L184.45 333.5L196.55 324.15L203.15 320.3L209.2 317L215.8 314.25L222.95 312.05L230.1 308.75L237.25 306L244.4 304.9L251.55 302.7L260.9 301.05L268.6 299.95L276.3 297.2L282.9 297.75L291.15 295.55L298.85 296.1L320.85 295L329.1 296.1L336.8 296.65L345.6 297.75L352.2 296.65L361 298.85L367.6 299.95L375.85 300.5L384.1 301.6L391.25 305.45L398.4 307.1L407.2 308.75L413.25 311.5L419.85 316.45L427 318.65L434.15 324.15L439.65 326.9L446.8 332.95L450.65 338.45L455.6 343.95L460.55 348.9L464.95 357.15L468.8 363.2L477.05 378.05L478.15 385.75L473.75 392.35L467.7 397.3L452.85 403.9L446.8 406.65L438.55 410.5L433.6 412.7L425.35 416L418.75 419.3L411.6 421.5L399.5 428.1L384.1 431.95L378.05 432.5L370.35 429.75L365.4 425.35L357.7 412.15L351.1 407.2L345.05 402.8L336.8 400.6L329.65 398.95L321.95 396.2H304.9L298.3 397.85L288.95 400.6L282.35 403.9L275.2 408.85V422.6L281.25 429.2L287.3 432.5L295 436.35L304.35 437.45L310.95 438.55L320.85 441.3H328L344.5 444.05L352.2 444.6L360.45 447.9L367.6 449H374.75L383 450.65L389.6 453.4L396.75 455.05L403.9 458.35L418.75 463.3L426.45 467.7L440.2 475.4L445.15 480.35L450.65 484.2L462.2 495.75L466.6 502.9L469.9 507.85L474.85 515L477.05 523.8L480.9 529.85L483.1 539.2L484.75 545.8L484.2 554.05L485.85 561.2L487.5 570.55L485.85 584.85L484.75 593.65V599.7L482 607.95L481.45 616.2L477.05 621.7L474.3 628.3L471 636.55L466.6 641.5L461.1 648.65L456.7 654.15L451.75 658.55L446.8 664.6L439.1 667.35L432.5 672.3L427.55 676.7L420.95 680L398.4 688.8L392.35 692.1L384.1 694.3L378.05 694.85L370.35 696.5L363.2 699.25H354.95L347.8 701.45L339 700.35L332.95 702.55L325.25 702L301.05 703.65L292.8 702ZM337.9 324.7V321.95L336.25 319.2L334.6 317.55V314.8L330.2 312.05L329.1 315.9L330.2 319.2L331.85 320.3L333.5 323.6L336.25 324.7H337.9ZM305.45 381.35L308.75 378.6V374.2L309.85 369.8L311.5 368.7L315.9 364.3L318.65 356.6H325.8V345.05L327.45 342.3H329.1V345.05L330.2 348.35V359.9L333.5 365.4H336.25V362.65L334.6 359.9L337.9 356.6H345.05L349.45 359.9L350.55 361L352.2 364.3L356.6 365.4L359.35 367.05L361 368.7H365.4V359.9L369.8 356.6V352.2L366.5 349.45L365.4 348.35H361V351.1L362.1 353.85V356.6L363.75 359.9L359.35 361L354.95 358.25L353.85 356.6H350.55L347.8 353.85L349.45 352.2L350.55 349.45L356.6 346.7L357.7 343.95L356.6 339.55L354.95 335.15L353.85 329.1L350.55 328L352.2 321.95L354.95 324.7L356.6 323.6L353.85 320.3L352.2 319.2L350.55 315.9L347.8 313.15L343.4 314.8V317.55L346.15 323.6V326.35L347.8 328V330.75L349.45 335.15L352.2 336.25L353.85 339.55L349.45 340.65L346.15 343.95L345.05 346.7H341.75L339 349.45H336.25L334.6 348.35V345.05L331.85 340.65L330.2 337.9L331.85 336.25L334.6 335.15L337.9 336.25H340.65L337.9 333.5L334.6 332.4L331.85 329.1L330.2 328H327.45V330.75L325.8 333.5L323.05 336.25L320.3 335.15V332.4L318.65 329.1L315.9 326.35H313.15L309.85 328L308.75 326.35L305.45 323.6L304.35 321.95L302.7 323.6L304.35 329.1L308.75 332.4L314.25 329.1L317.55 332.4L314.25 333.5L315.9 339.55L317.55 340.65L318.65 343.95V348.35L317.55 351.1L313.15 348.35L311.5 346.7L308.75 348.35L309.85 351.1V353.85L311.5 356.6L313.15 359.9L308.75 364.3L307.1 365.4L304.35 368.7V371.45L301.6 374.2L297.2 375.85L298.3 378.6L301.6 380.25L304.35 381.35H305.45ZM366.5 315.9H363.75V319.2L366.5 315.9ZM276.85 330.75L275.2 329.1L273.55 326.35L276.85 324.7L279.6 321.95L276.85 319.2L273.55 321.95L272.45 328V330.75L273.55 333.5L276.85 330.75ZM370.9 381.35L372.55 378.6V372.55H376.95L378.05 374.2L381.35 375.85L384.1 372.55L382.45 371.45L379.7 368.7L378.05 364.3L379.7 362.65H384.1L388.5 364.3H397.3V362.65L395.65 361L392.9 359.9H390.15L386.85 358.25L384.1 356.6H381.35L378.05 352.2L382.45 348.35H384.1L386.85 346.7H390.15L392.9 342.3L394 339.55L397.3 336.25V330.75L395.65 328L392.9 326.35L390.15 328V333.5L391.25 335.15L386.85 339.55L384.1 336.25V333.5L385.75 330.75L382.45 326.35L379.7 324.7L376.95 328L378.05 330.75L379.7 333.5V336.25L381.35 337.9V340.65L376.95 343.95L374.2 342.3L372.55 337.9V332.4L366.5 333.5L365.4 335.15V337.9L366.5 342.3L375.3 351.1V359.9L374.2 364.3L372.55 367.05L370.9 368.7L368.15 369.8L366.5 372.55V380.25L368.15 381.35H370.9ZM297.2 333.5H299.95L298.3 329.1H297.2L291.15 330.75L289.5 333.5L288.4 336.25L292.8 337.9L297.2 333.5ZM248.8 336.25L244.95 332.4L243.3 335.15V339.55L246.05 342.3L248.8 336.25ZM420.4 355.5L418.75 349.45V343.95L417.65 340.65V336.25L414.35 332.4L408.85 333.5L406.1 335.15L404.45 336.25L401.7 337.9L398.4 339.55L395.65 343.95L400.05 342.3L404.45 343.95L407.2 345.05L411.6 348.35L414.35 349.45L416 352.2L417.65 355.5L416 356.6V359.9L420.4 355.5ZM424.8 340.65L426.45 337.9L423.15 340.65H424.8ZM234.5 343.95L236.15 342.3L234.5 339.55L232.85 340.65L231.75 343.95H234.5ZM301.6 348.35L299.95 345.05L298.3 348.35H301.6ZM445.15 383V380.25L443.5 376.95L442.4 374.2L440.75 372.55L439.1 369.8V367.05L440.75 361L442.4 358.25L438 356.6H436.35L433.6 355.5L431.95 352.2L429.2 349.45L424.8 355.5L423.15 359.9V362.65L420.4 368.7V369.8L422.05 375.85L420.4 378.6L422.05 380.25H427.55L430.3 378.6L431.95 375.85V374.2L433.6 371.45L438 372.55L439.1 375.85L440.75 378.6V380.25L442.4 383L443.5 385.75L445.15 383ZM229 359.9H230.1L234.5 356.6L236.15 353.85V351.1H232.85L230.1 355.5L225.7 358.25H224.6L225.7 361L229 359.9ZM227.35 353.85L229 352.2L225.7 351.1V353.85H227.35ZM298.3 353.85L297.2 351.1L292.8 353.85L297.2 356.6L298.3 353.85ZM396.2 438.55L408.85 434.15L416 430.85L422.6 428.1L427 425.35L434.15 423.7L439.1 420.4L445.7 419.3L452.3 415.45L458.35 412.7L464.95 410.5L476.5 405L482.55 401.15L486.4 397.3L489.7 392.9L490.8 386.85L489.7 380.8L483.1 367.05L480.9 362.1L475.4 354.95L476.5 352.75L482 355.5L486.95 359.35L490.25 363.2L495.75 368.15L497.4 373.1L504 384.1L505.1 392.35L505.65 396.75L502.9 402.8L495.2 412.7L477.6 419.85L470.45 422.6L466.05 424.8L458.9 427.55L453.95 429.75L448.45 432.5L442.4 435.8L435.25 438.55L430.3 441.3L423.15 441.85L409.95 444.6L404.45 445.15L397.3 444.05L388.5 441.85L396.2 438.55ZM424.8 371.45L423.15 368.7L424.8 364.3L427.55 361L430.3 356.6L433.6 359.9L430.3 365.4V368.7L429.2 371.45L426.45 372.55L424.8 371.45ZM288.4 358.25L286.75 361L288.4 364.3V358.25ZM243.3 362.65L241.65 365.4L244.95 367.05L243.3 362.65ZM299.95 365.4L297.2 364.3L295.55 367.05L298.3 368.7L299.95 365.4ZM317.55 375.85L320.3 374.2L321.4 371.45L323.05 369.8V367.05L320.3 364.3L318.65 367.05L317.55 371.45L314.25 372.55V376.95L317.55 375.85ZM340.65 384.65L339 381.35L341.75 378.6L343.4 374.2L346.15 372.55L349.45 374.2L352.2 375.85H353.85V372.55L350.55 369.8L341.75 365.4L340.65 367.05L341.75 369.8L340.65 372.55H336.25L331.85 374.2L329.1 375.85L330.2 378.6L333.5 380.25L336.25 383L337.9 385.75L340.65 384.65ZM215.8 372.55V369.8L214.15 368.7L212.5 371.45V375.85L215.8 372.55ZM253.2 371.45L252.1 368.7H247.7L248.8 374.2L253.2 371.45ZM291.15 372.55H288.4L285.1 369.8L284 372.55L288.4 375.85L291.15 372.55ZM398.4 380.25L401.7 378.6L404.45 375.85V371.45L402.8 369.8L400.05 371.45L398.4 374.2H395.65L394 375.85L392.9 378.6L395.65 380.25H398.4ZM276.85 381.35L277.95 380.25L279.6 376.95L276.85 372.55L273.55 375.85V381.35H276.85ZM180.6 390.15L182.25 387.4L183.9 381.35L182.25 378.6L179.5 376.95V380.25L180.6 384.65L179.5 388.5L177.85 391.8L180.6 390.15ZM253.2 391.8L256.5 394.55V390.15H262L263.65 387.4H260.9L257.6 385.75V380.25L259.25 376.95L256.5 378.6L253.2 384.65V387.4L252.1 390.15H248.8L246.05 388.5L244.95 391.8L248.8 394.55L253.2 391.8ZM413.25 380.25V376.95H410.5V380.25H413.25ZM222.95 383V380.25L220.2 381.35V383L221.3 385.75L222.95 383ZM270.8 380.25H269.15L268.05 381.35L269.15 383L270.8 380.25ZM392.9 388.5L391.25 385.75H388.5V390.15L391.25 391.8L392.9 388.5ZM413.25 394.55L410.5 390.15L408.85 388.5L406.1 387.4L407.2 390.15L410.5 396.2L413.25 394.55ZM241.65 403.35L243.3 401.7V396.2L241.65 392.9L240.55 391.8L238.9 388.5H234.5V392.9L236.15 396.2L237.25 398.95V401.7L238.9 405L241.65 403.35ZM436.35 391.8L434.7 388.5L430.3 391.8V392.9L434.7 394.55L436.35 391.8ZM406.1 400.6V397.3L402.8 391.8V397.3L401.7 398.95V401.7L404.45 403.35L406.1 400.6ZM365.4 394.55L362.1 392.9L361 394.55L363.75 396.2L365.4 394.55ZM385.75 400.6L386.85 397.3L385.75 394.55L384.1 397.3V400.6H385.75ZM224.6 400.6V397.3H218.55L220.2 400.6L222.95 401.7L224.6 400.6ZM189.4 398.95L186.65 400.6L189.4 401.7V398.95ZM199.85 410.5L200.95 407.75L199.85 406.1L198.2 407.75L196.55 410.5H199.85ZM248.8 429.2L246.05 428.1L244.95 426.45V417.65L247.7 416.55H250.45L253.2 412.15L252.1 408.85L246.05 406.1L244.95 408.85L241.65 410.5L238.9 413.25H236.15V416.55L238.9 417.65L240.55 420.95L241.65 422.05L238.9 423.7L237.25 426.45L241.65 429.2L244.95 430.85L247.7 432.5L248.8 429.2ZM292.25 425.35L290.6 413.8L296.65 409.4L303.25 407.75L308.75 406.1L322.5 407.2L330.75 408.3L335.7 408.85L342.85 412.7L346.7 417.65L345.6 420.95L339.55 420.4L326.35 420.95L319.75 420.4L313.15 421.5L307.65 423.7L303.25 429.2L297.2 428.1L292.25 425.35ZM212.5 414.9L211.4 412.15L208.65 410.5V407.75L205.35 408.85L207 410.5L209.75 414.9H212.5ZM224.6 416.55L225.7 414.9V412.15L224.6 408.85L220.2 407.75H216.9L215.8 408.85L218.55 412.15L216.9 414.9V417.65L221.3 419.3L224.6 416.55ZM173.45 417.65L170.7 413.25L167.95 414.9V417.65L172.35 419.3L173.45 417.65ZM182.25 420.95L185 417.65L182.25 419.3H179.5L177.85 422.05L180.6 423.7L182.25 420.95ZM208.65 430.85L209.75 428.1V423.7L211.4 422.05L209.75 419.3H207L204.25 422.05V426.45L205.35 429.2V432.5L208.65 430.85ZM257.6 429.2L254.85 424.8L253.2 428.1V430.85L257.6 429.2ZM214.15 438L215.8 435.25L216.9 432.5V429.2L215.8 428.1L212.5 429.2L211.4 432.5L209.75 435.25L211.4 439.65L214.15 438ZM265.3 439.65L266.4 436.9L263.65 435.25L260.9 436.9V439.65L263.65 441.3L265.3 439.65ZM248.8 460L252.1 457.25L248.8 455.6H246.05L240.55 452.85H234.5L236.15 446.8H238.9L247.7 441.3H250.45L252.1 436.9H247.7L246.05 438L241.65 441.3L237.25 444.05L232.85 442.4L231.75 444.05L230.1 446.8V448.45L231.75 453.95L234.5 455.6L238.9 458.35L241.65 460H248.8ZM175.1 446.8L173.45 445.15L172.35 448.45L173.45 449.55L175.1 446.8ZM182.25 449.55V448.45L179.5 451.2L182.25 449.55ZM218.55 462.75V453.95L221.3 451.2L218.55 448.45L215.8 451.2V455.6L214.15 458.35V464.4L216.9 465.5L218.55 462.75ZM301.6 455.6L297.2 453.95V457.25L301.6 455.6ZM292.8 478.7V475.95L291.15 474.3L288.4 473.2L289.5 467.15L291.15 464.4L288.4 462.75L286.75 467.15V475.95L289.5 478.7H292.8ZM243.3 467.15L237.25 465.5L238.9 469.9L240.55 471.55L243.3 467.15ZM256.5 467.15L254.85 468.8L257.6 469.9L256.5 467.15ZM279.6 474.3L276.85 471.55L273.55 469.9L275.2 473.2L277.95 475.95L281.25 477.6L279.6 474.3ZM231.75 481.45L232.85 475.95L231.75 471.55H229V475.95L230.1 481.45H231.75ZM401.7 478.7L398.4 477.6V480.35L401.7 478.7ZM391.25 487.5L392.9 484.75V480.35L390.15 481.45L388.5 484.75V489.15L391.25 487.5ZM365.4 487.5L368.15 484.75L370.9 483.1L368.15 481.45L366.5 483.1L362.1 484.75V489.15L365.4 487.5ZM379.7 489.15L382.45 485.85L379.7 484.75L376.95 487.5V489.15H379.7ZM411.6 487.5H408.85L406.1 484.75L402.8 485.85L404.45 489.15L408.85 490.25L411.6 487.5ZM288.4 499.05L286.75 497.4L284 493.55V490.25L282.35 487.5L279.6 485.85L277.95 487.5L279.6 489.15V494.65L282.35 496.3L284 497.4L285.1 500.7L288.4 499.05ZM222.95 487.5H221.3V489.15L224.6 490.25L222.95 487.5ZM353.85 500.7L352.2 499.05V496.3L347.8 494.65L345.05 496.3L346.15 499.05L350.55 500.7L352.2 501.8L353.85 500.7ZM431.95 496.3L430.3 494.65L427.55 497.4L430.3 499.05L431.95 496.3ZM391.25 500.7L390.15 497.4V501.8L391.25 500.7ZM273.55 513.9L275.2 510.6L273.55 506.2L275.2 503.45L272.45 500.7L270.8 501.8V507.85L272.45 510.6L270.8 513.9V515L273.55 513.9ZM372.55 528.2L374.2 525.45L378.05 522.15L381.35 517.75L379.7 513.9L376.95 512.25V501.8L375.3 500.7L374.2 503.45V506.2L372.55 509.5L369.8 512.25V519.4L370.9 522.15L365.4 525.45L366.5 528.2L369.8 530.95L372.55 528.2ZM212.5 505.1L214.15 501.8H211.4L209.75 505.1H212.5ZM426.45 506.2L423.15 501.8L420.4 503.45L417.65 507.85L416 510.6V513.9L417.65 512.25L420.4 510.6L422.05 512.25L423.15 515L426.45 517.75V506.2ZM284 507.85L281.25 506.2V507.85L282.35 509.5L284 507.85ZM397.3 509.5L395.65 507.85L392.9 510.6L394 512.25L397.3 509.5ZM372.55 516.65V513.9L374.2 510.6L376.95 512.25L378.05 516.65L375.3 521.05L372.55 516.65ZM323.05 516.65L327.45 512.25H325.8L323.05 513.9L321.4 516.65H323.05ZM440.75 513.9L438 512.25L439.1 515L440.75 513.9ZM390.15 522.15V521.05L388.5 517.75L386.85 513.9H385.75L386.85 517.75L385.75 521.05L388.5 525.45L390.15 522.15ZM410.5 521.05V519.4L408.85 517.75L406.1 516.65H401.7L404.45 519.4L407.2 521.05H410.5ZM260.9 523.8L257.6 525.45L260.9 526.55V523.8ZM308.75 525.45L307.1 523.8L304.35 525.45L307.1 526.55L308.75 525.45ZM361 532.6L359.35 529.85L357.7 528.2L354.95 529.85L356.6 532.6L357.7 533.7L361 532.6ZM391.25 533.7L388.5 530.95L385.75 529.85L382.45 532.6V535.35L385.75 537L391.25 533.7ZM401.7 529.85L398.4 530.95L401.7 532.6V529.85ZM447.9 535.35L449.55 532.6V529.85H445.15V532.6L446.8 535.35H447.9ZM502.35 542.5L503.45 548L506.75 554.6L507.3 560.1L509.5 567.25L510.6 572.75L511.15 579.9L512.25 584.85L511.15 597.5V611.25L508.4 625.55L506.2 630.5L505.1 636.55L502.35 642.6L500.7 648.65L497.95 654.7L494.1 660.75L490.25 665.15L485.3 671.2L482 675.6L472.65 686.05L468.25 689.35L461.1 693.75L457.25 697.05L451.75 699.8L444.6 703.65L439.65 706.95L432.5 708.6L428.1 710.8L422.05 714.65L414.35 716.85L409.4 718.5L401.7 719.6L395.65 721.25L388.5 722.35L381.9 722.9L376.4 725.65L363.75 726.75L357.15 727.85L348.9 727.3L342.3 728.4L337.35 727.85H316.45L309.85 728.4H303.25L296.1 727.3L290.05 726.2L282.9 725.1L276.3 723.45L269.7 722.35L264.2 721.8L257.05 719.6L249.9 719.05L244.4 715.75L237.8 714.1L232.85 711.9L225.7 709.7L219.1 705.85L213.05 702.55L208.1 698.7L216.9 697.6L221.85 699.8L228.45 702.55L235.6 704.2L241.65 706.95H249.35L255.4 709.7H262L268.6 710.8L275.75 712.45L282.35 713.55L289.5 714.65L295.55 713L303.25 714.65L315.35 715.2L323.05 714.65H329.65L335.15 713L341.75 713.55L348.9 711.35L355.5 712.45L363.2 711.35L369.25 709.15L382.45 708.05L389.05 705.85L395.65 703.1L408.85 699.8L421.5 695.4L425.9 693.2L433.05 689.35L439.65 686.6L444.6 683.85L450.1 680L455.6 675.05L460.55 671.75L466.6 666.8L470.45 662.95L475.4 656.35L479.25 652.5L482.55 647L484.75 640.4L488.6 634.35L490.8 628.85L493.55 623.35L495.75 615.65L496.85 609.6L497.95 602.45V595.3L497.4 582.65V577.7L496.3 571.1L495.75 565.05L496.3 557.9L494.1 551.3V546.35L490.8 535.9L493 531.5L498.5 536.45L502.35 542.5ZM331.85 537H329.1L331.85 539.75V537ZM315.9 539.75V538.1H313.15L314.25 541.4L315.9 539.75ZM404.45 545.8L406.1 542.5L407.2 539.75L404.45 538.1L402.8 541.4L400.05 544.15L401.7 546.9L404.45 545.8ZM462.75 544.15L459.45 541.4H456.7L458.35 544.15L461.1 545.8L462.75 544.15ZM225.15 545.8L232.3 546.9L237.8 548L243.3 551.3L248.8 552.95L262.55 554.6L269.7 557.9L274.65 558.45L280.15 560.1L287.85 559.55L293.35 561.75L300.5 563.4L306.55 563.95L319.2 566.15L324.15 566.7L335.15 568.9L342.3 571.1L343.95 576.6L334.6 580.45L319.75 579.35L313.15 577.7L308.2 577.15L299.95 574.4L294.45 573.85L288.4 571.65H281.8L275.2 568.9L268.6 568.35L262.55 565.05L254.85 564.5L249.9 561.2L242.2 559L236.7 557.9L230.1 554.05L223.5 552.95L219.1 548.55L220.2 543.6L225.15 545.8ZM391.25 558.45L392.9 555.7L391.25 552.95L390.15 555.7L388.5 560.1L391.25 558.45ZM434.7 557.35L433.6 555.7H429.2L433.6 560.1L434.7 557.35ZM461.1 566.15L462.75 562.85L461.1 558.45L458.35 557.35H453.95L452.3 561.75L455.05 566.15L459.45 567.25L461.1 566.15ZM442.4 576.05L440.75 574.4L436.35 577.7L439.1 578.8L442.4 576.05ZM416 584.85L417.65 580.45L418.75 577.7L416 576.05L413.25 578.8L411.6 584.85L413.25 586.5L416 584.85ZM462.75 584.85L463.85 583.2L462.75 578.8L459.45 580.45H455.05L453.95 577.7L450.65 576.05L447.9 577.7L449.55 580.45L450.65 582.1L453.95 583.2L456.7 584.85H462.75ZM429.2 592L431.95 590.35L430.3 584.85H427.55L426.45 587.6V592H429.2ZM402.8 590.35L401.7 589.25L398.4 590.35L397.3 592V593.65L402.8 590.35ZM385.75 593.65V592L384.1 590.35V593.65H385.75ZM452.3 593.65H450.65L449.55 594.75L450.65 596.4L452.3 593.65ZM230.1 599.15V598.05H227.35L229 600.8L230.1 599.15ZM423.15 607.95V605.2L424.8 600.8L423.15 598.05L418.75 599.15L416 598.05L414.35 600.8V603.55L417.65 605.2H420.4L422.05 607.95H423.15ZM433.6 598.05L430.3 599.15L433.6 602.45V598.05ZM386.85 603.55L385.75 602.45L381.35 599.15V600.8L385.75 605.2L386.85 603.55ZM238.9 603.55V602.45H236.15L237.25 605.2L238.9 603.55ZM205.35 607.95V605.2H200.95L199.85 606.3L202.6 607.95L204.25 609.6L205.35 607.95ZM220.2 610.7L221.3 609.6L220.2 606.3H218.55V610.7H220.2ZM445.15 623.9L447.9 622.8L446.8 619.5H443.5V609.6L442.4 606.3H440.75L439.1 610.7V616.75L440.75 621.15L439.1 622.8L442.4 623.9H445.15ZM395.65 614V610.7H392.9L391.25 614L394 615.1L395.65 614ZM175.1 615.1V614L173.45 612.35V615.1H175.1ZM456.7 618.4L453.95 615.1L452.3 618.4H456.7ZM417.65 619.5V618.4L414.35 616.75L413.25 619.5H417.65ZM339 618.4H336.25V621.15L339 618.4ZM273.55 622.8L275.2 621.15L273.55 619.5L272.45 622.8L270.8 623.9L272.45 625.55L273.55 622.8ZM305.45 623.9H302.7V625.55L304.35 626.65L305.45 623.9ZM193.8 628.3L191.05 626.65L192.7 629.95L193.8 631.05V628.3ZM214.15 634.35L212.5 629.95L211.4 628.3V631.05L209.75 635.45L214.15 634.35ZM238.9 629.95V628.3H236.15L237.25 631.05L238.9 629.95ZM436.35 637.1V628.3L433.6 631.05H430.3V634.35L431.95 635.45L433.6 638.75L436.35 637.1ZM285.1 644.25L288.4 642.6L289.5 641.5L291.15 637.1L288.4 634.35L284 635.45V644.25H285.1ZM307.1 638.75L304.35 637.1L302.7 639.85L304.35 641.5L307.1 638.75ZM339 639.85L334.6 637.1V641.5L339 639.85ZM374.2 645.9L372.55 642.6H370.9L369.8 645.9L372.55 647L374.2 645.9ZM413.25 645.9V642.6H410.5L407.2 645.9L410.5 648.65L413.25 645.9ZM353.85 648.65L356.6 644.25H352.2L350.55 647L347.8 648.65L346.15 650.3L347.8 651.4L353.85 648.65ZM339 654.7L340.65 648.65L339 647L337.9 648.65L336.25 653.05L334.6 655.8L333.5 657.45L334.6 659.1L339 654.7ZM370.9 659.1V657.45L365.4 654.7L361 655.8L359.35 657.45L362.1 659.1H370.9ZM293.9 661.85V659.1L291.15 660.2L292.8 661.85H293.9ZM266.4 669V666.25L262 662.95V667.35L263.65 670.65L266.4 669ZM378.05 666.25L379.7 662.95L376.95 664.6L375.3 667.35V669L378.05 666.25ZM299.95 671.75L298.3 669L295.55 670.65L298.3 673.4L299.95 671.75ZM291.15 682.2L292.8 678.9L289.5 677.8L288.4 678.9V682.2H291.15Z" fill="white"/>
<path d="M669.322 702L661.622 700.9H653.922L644.572 699.8H637.972L630.272 696.5L622.572 695.4L615.422 694.3L607.172 691L599.472 688.25L592.322 684.95L586.822 681.65L579.672 677.8L567.572 670.65L560.972 666.25L553.822 661.3L549.422 655.8L543.372 649.2L538.972 644.25L535.122 637.1L530.172 631.05L527.972 623.9L523.572 618.95L520.822 611.25L517.522 604.1L515.872 597.5L513.672 588.15L510.922 581L511.472 573.3L509.272 565.6V559L507.622 551.3L508.172 535.35L508.722 527.65L509.272 518.3V510.6L508.172 504L508.722 495.2L507.622 488.05L508.722 479.8V471L509.272 462.75L507.622 446.8L509.272 440.2L508.722 432.5L510.372 423.7L510.922 417.1L513.672 408.85L515.872 401.7L516.972 394L520.822 387.4L524.122 381.35L527.422 374.2L535.672 360.45L540.072 353.85L544.472 347.8L548.872 342.85L554.372 336.8L559.872 331.85L567.572 327.45L574.172 324.15L579.122 320.3L586.822 315.35L592.872 312.05L599.472 309.3L607.722 307.65L615.972 304.9L622.022 303.8L630.822 301.05L637.422 300.5L645.122 298.85L652.272 296.65L661.072 297.2L669.322 296.65L675.372 295L690.772 295.55H700.122L707.272 296.65H715.522L722.122 299.4H730.372L737.522 301.6L752.922 306L760.622 307.1L768.322 310.4L774.372 313.15L782.072 317L788.122 319.2L795.822 324.15L802.422 329.1L807.372 332.95L813.422 339L818.372 343.4L824.422 350L832.122 362.1L838.172 369.25L841.472 374.2L844.772 382.45L846.972 389.05L853.572 402.8L853.022 412.15L848.072 419.3L843.122 423.7L828.272 429.75L821.122 431.4L812.872 434.15L804.622 437.45L796.922 440.2L789.222 443.5L783.172 446.25L775.472 448.45L767.772 449.55L753.472 455.05L744.672 453.95L737.522 450.65L732.572 445.15L727.072 430.85L722.672 423.15L718.272 417.65L711.672 413.8L706.722 409.4L698.472 407.75H691.322L675.922 407.2L668.222 406.65L660.522 408.3L653.372 413.25L647.322 417.1L641.822 424.25L639.072 429.75L636.322 438L635.222 446.8L636.322 461.65L636.872 470.45V475.95L636.322 483.65L636.872 491.35L636.322 500.15L635.772 506.2L635.222 513.9V521.05L635.772 529.3L635.222 535.35L636.322 552.95L637.972 559.55L639.622 568.9L642.372 574.95L647.322 580.45L652.272 585.4L659.422 588.7L666.572 591.45L674.822 592.55L692.422 592L699.022 589.8L706.722 587.6L712.772 584.85L718.272 580.45L722.672 574.95L727.072 568.35L734.222 552.95L738.072 546.9L745.222 544.15H753.472L768.872 549.1L776.572 551.85L783.172 552.4L790.872 555.7L799.122 559.55L805.172 560.65L813.422 563.4L820.022 566.7L827.172 570L842.022 576.05L849.722 579.9L852.472 588.15L853.022 594.2L848.072 611.25L844.772 617.3L840.372 624.45L838.172 630.5L832.672 637.65L829.372 644.25L824.422 648.65L818.372 655.8L813.422 659.65L807.372 665.15L800.772 670.65L794.722 674.5L788.122 679.45L781.522 681.65L774.922 686.6L768.322 689.35L760.622 692.1L753.472 694.3L745.772 694.85L730.372 698.7L723.222 699.25L714.972 702L707.822 701.45L699.572 702.55L692.422 702L675.922 702.55L669.322 702ZM634.122 331.85L632.472 329.1L631.372 325.8L626.972 321.4L622.572 323.05V329.1L626.972 331.85L632.472 333.5L634.122 331.85ZM695.172 329.1L693.522 325.8L690.772 324.7H689.122L686.372 321.4V325.8L688.022 327.45L690.772 329.1H695.172ZM735.872 330.2L737.522 327.45L740.272 325.8L741.372 321.4L737.522 323.05L734.222 325.8L729.822 329.1L733.122 331.85L735.872 330.2ZM708.372 330.2L711.122 325.8L706.722 324.7L705.072 327.45V330.2H708.372ZM535.672 469.9L536.772 466.6H547.222L549.972 465.5L552.722 463.85L557.122 465.5L559.872 463.85L563.172 458.35L564.272 456.7V453.95L563.172 450.65L565.922 446.25L567.572 447.9L568.672 445.15V440.75L571.972 439.1H577.472L583.522 438V434.7L580.222 431.95L579.122 433.6H573.072L570.322 431.95L568.672 430.3L565.922 429.2L563.172 425.9L561.522 424.8L559.872 422.05V417.65H563.172L567.572 418.75L568.672 422.05H571.972L574.722 423.15L577.472 424.8H580.222L581.872 420.4L583.522 417.65L580.222 414.35L577.472 416L574.722 411.6L576.372 409.95L573.072 407.2H571.972L568.672 408.85L564.272 409.95L561.522 411.6L559.872 414.35H556.022L552.722 413.25L549.972 408.85V406.1L551.622 402.8L556.022 401.7V406.1L557.122 407.2L559.872 404.45H568.672L571.972 402.8L573.072 401.7L576.372 400.05L579.122 401.7L584.622 402.8L587.922 401.7L590.672 400.05L592.322 397.3L593.422 395.65L595.072 392.9L596.172 389.6H600.572L603.872 388.5L604.972 389.6L606.622 392.9V395.65L609.372 394V391.25L608.272 389.6L611.022 384.1L608.272 379.7L603.872 375.3L602.222 372.55H597.822V375.3L596.172 379.7H590.672L589.022 376.95L586.272 378.05L589.022 382.45L590.672 384.1H596.172L600.572 385.75L599.472 386.85H596.172L592.322 389.6H589.022L586.272 386.85L584.622 385.75L580.222 382.45H577.472L573.072 379.7L567.572 375.3V369.8L570.322 368.15L571.972 366.5L576.372 369.8L579.122 370.9L577.472 368.15L574.722 365.4L577.472 362.1H580.222L583.522 359.35L584.622 356.6L587.922 354.95L590.672 353.3L593.422 352.2L596.172 350.55L597.822 349.45L603.872 346.15L606.622 343.4L611.022 345.05V347.8L612.672 350.55L618.172 349.45V336.25L616.522 334.6H613.772L611.022 333.5L608.272 331.85L604.972 333.5L603.872 337.35L600.572 339L596.172 341.75L593.422 340.65H590.672L587.922 339L583.522 337.35V340.65L584.622 341.75V347.8L583.522 350.55L581.872 352.2L580.222 354.95L579.122 357.7L577.472 361L573.072 363.75L552.722 365.4L551.622 368.15L554.372 370.9H557.122L558.772 373.65L554.372 378.05H551.622L548.322 382.45V389.6L552.722 392.9L554.372 389.6V384.1L557.122 381.35L559.872 379.7H565.922L570.322 384.1L571.972 388.5V394L570.322 398.4H564.272L561.522 397.3H558.772L554.372 395.65L551.622 397.3H545.572L540.072 398.4L536.772 402.8L535.672 404.45L534.022 409.95V413.25L535.672 414.35L540.072 417.65V414.35L536.772 411.6L538.422 407.2L541.172 404.45L545.572 407.2L547.222 409.95L549.972 411.6L551.622 413.25V416L552.722 418.75L549.972 420.4H547.222V424.8L549.972 425.9H552.722L554.372 427.55L557.122 429.2V430.3H548.322L542.822 433.6H540.072L538.422 436.35L535.672 438V440.75L536.772 442.4L540.072 443.5H543.922L545.572 442.4H549.972L552.722 443.5L556.022 445.15L559.872 449.55V452.3L558.772 456.7L554.372 452.3L549.972 453.95L547.222 455.05L545.572 458.35L542.822 459.45L538.422 461.1L534.022 462.2L531.272 466.6V469.9L534.022 471L535.672 469.9ZM673.172 340.65L672.072 337.35H670.422V340.65H673.172ZM738.622 339V337.35H735.872L737.522 340.65L738.622 339ZM648.972 352.2L650.072 347.8L648.972 346.15L645.672 345.05H642.922L640.172 341.75L636.872 340.65H634.122L629.722 339H624.222V341.75H629.722L632.472 343.4L634.122 346.15L636.872 349.45L638.522 350.55L641.272 352.2H648.972ZM760.622 345.05L761.722 341.75V340.65L758.972 339L757.872 341.75L758.972 345.05H760.622ZM774.922 357.7L777.672 356.6L779.322 353.3L776.572 352.2V349.45L779.322 347.8L782.072 349.45L783.722 347.8L782.072 345.05V341.75H780.972L779.322 345.05L774.922 346.15L770.522 347.8L769.422 350.55L767.772 354.95L769.422 357.7H774.922ZM577.472 350.55L576.372 349.45L574.722 346.15L570.322 345.05V350.55L576.372 353.3L577.472 350.55ZM658.872 350.55L660.522 349.45L657.222 347.8V350.55H658.872ZM749.072 350.55L750.172 349.45L747.422 347.8V350.55H749.072ZM593.422 369.8V366.5L596.172 362.1L597.822 361L600.572 357.7L602.222 356.6V353.3L600.572 352.2L599.472 354.95L596.172 356.6L593.422 357.7H590.672L587.922 361V365.4L589.022 368.15L592.322 370.9L593.422 369.8ZM625.322 376.95V373.65L628.622 368.15L629.722 365.4L632.472 363.75H638.522L640.172 365.4L638.522 368.15L640.172 369.8L642.922 366.5L644.572 363.75L641.272 361H638.522L634.122 356.6H629.722L628.622 354.95L624.222 352.2L620.922 354.95L622.572 357.7V366.5L620.922 369.8L619.822 372.55V378.05L624.222 379.7L625.322 376.95ZM705.072 368.15L706.722 365.4L711.122 361L713.872 359.35L715.522 357.7V356.6L709.472 354.95L706.722 357.7V361L705.072 362.1L703.972 365.4L702.322 368.15H705.072ZM611.022 370.9L612.672 368.15L613.772 366.5L615.422 363.75L616.522 361L618.172 357.7L615.422 356.6L612.672 357.7H609.372L606.622 359.35L604.972 362.1V365.4L606.622 368.15L608.272 369.8L609.372 372.55L611.022 370.9ZM751.822 372.55L754.572 365.4L757.872 361V357.7H754.572V361L753.472 362.1L750.172 361L747.422 363.75L749.072 366.5V369.8L750.172 372.55H751.822ZM657.222 372.55L660.522 366.5L658.872 361H657.222L656.122 363.75V366.5L654.472 368.15L652.822 370.9L654.472 372.55H657.222ZM718.272 379.7L722.672 378.05L724.322 375.3L725.422 373.65L728.722 372.55L733.122 373.65V372.55L729.822 369.8H727.072L722.672 372.55L719.922 373.65L718.272 375.3L715.522 376.95L713.872 379.7H718.272ZM792.522 370.9L788.122 369.8V373.65L792.522 370.9ZM862.922 377.5L866.772 382.45L871.722 388.5L875.022 394.55L877.772 398.4L883.272 410.5L882.722 418.2L883.272 425.35L882.172 431.95L877.222 437.45L873.372 440.75L855.222 450.65L848.072 451.75L841.472 453.4L835.422 457.25L823.872 461.1L817.272 464.4L811.772 464.95L805.172 468.25L797.472 469.35L777.672 476.5L772.172 478.7L762.272 479.25L758.972 473.2L762.272 468.8L777.672 461.65L784.272 460.55L789.222 457.25L796.372 456.7L803.522 454.5L807.922 450.65L813.972 449.55L820.022 447.9L827.172 445.7L834.322 441.85L840.372 440.75L846.972 437.45L857.422 434.15L862.922 429.2L866.772 423.7L868.422 417.65L867.872 411.05L865.122 398.95L862.372 394.55L861.272 386.85L858.522 381.9L853.572 377.5L853.022 371.45L859.072 373.65L862.922 377.5ZM680.872 378.05V375.3L679.222 373.65H677.572L676.472 376.95L677.572 379.7L679.222 381.35L680.872 378.05ZM776.572 373.65L773.822 375.3L776.572 376.95V373.65ZM695.172 378.05L696.822 376.95L695.172 375.3L692.422 376.95V378.05H695.172ZM650.072 384.1L648.972 382.45L647.322 379.7L644.572 378.05L642.922 376.95L638.522 378.05V379.7L640.172 384.1L642.922 386.85L647.322 388.5L650.072 384.1ZM658.872 385.75V384.1L654.472 381.35V384.1L656.122 386.85L658.872 385.75ZM772.172 382.45V381.35H769.422V384.1L772.172 382.45ZM728.722 384.1L725.422 382.45L724.322 385.75L728.722 384.1ZM564.272 384.1H559.872L561.522 386.85L564.272 384.1ZM690.772 386.85L688.022 385.75L685.272 384.1V386.85L686.372 389.6L689.122 391.25L690.772 386.85ZM581.872 395.65L577.472 391.25L576.372 386.85H581.872L583.522 388.5L587.922 391.25V394L584.622 397.3L581.872 395.65ZM750.172 389.6L749.072 386.85V391.25L750.172 389.6ZM769.422 394V392.9H766.122L767.772 395.65L769.422 394ZM596.172 409.95V407.2L599.472 406.1H603.872V401.7L600.572 397.3H597.822L595.072 400.05L592.322 404.45L589.022 407.2L590.672 409.95L593.422 411.6L596.172 409.95ZM619.822 420.4L624.222 418.75L626.972 420.4L629.722 418.75L628.622 416L625.322 414.35V411.6L626.972 409.95L632.472 408.85L631.372 404.45L628.622 402.8L626.972 401.7L624.222 400.05L620.922 398.4L616.522 397.3V402.8L613.772 408.85L612.672 409.95V416L615.422 417.65L616.522 422.05V423.15L619.822 420.4ZM635.772 397.3L634.122 398.4L635.772 401.7V397.3ZM619.822 409.95V407.2L620.922 406.1L624.222 408.85V411.6L622.572 413.25L619.822 409.95ZM602.222 417.65L603.872 414.35H600.572V417.65H602.222ZM592.322 424.8V418.75L589.022 417.65L586.272 418.75L587.922 424.8L589.022 425.9L592.322 424.8ZM698.472 432.5L683.072 431.4L678.122 432.5L670.422 435.25L663.272 442.95L662.722 450.1V457.25L662.172 463.3L661.072 477.05L662.172 489.15V495.75L661.072 501.8L660.522 507.85L661.072 514.45V526.55L661.622 534.25L660.522 539.2V554.6L661.622 562.3L663.272 568.9L658.322 573.3L653.922 570L650.072 564.5L648.972 559L648.422 552.4L646.772 546.35V526.55L647.322 519.95L646.772 512.25V506.2L647.322 500.7L646.222 494.65L647.872 486.4L646.772 480.9L647.322 474.85V468.8L646.772 462.75L647.322 447.9L647.872 441.3L650.622 436.35L652.822 430.3L657.772 425.35L662.722 420.95L669.872 419.85L677.572 419.3L690.222 418.75H697.372L703.972 422.05L708.922 427L713.872 434.15L705.072 433.05L698.472 432.5ZM538.422 430.3L536.772 424.8L535.672 423.15L532.372 422.05L531.272 420.4L529.622 422.05V424.8L531.272 427.55V430.3L535.672 431.95L538.422 430.3ZM776.572 425.9L779.322 424.8L777.672 423.15L774.922 425.9H776.572ZM603.872 427.55L609.372 425.9L604.972 424.8H602.222L599.472 425.9L600.572 427.55H603.872ZM558.772 439.1L561.522 434.7L565.922 439.1L563.172 442.4L558.772 439.1ZM612.672 439.1V438H609.372V440.75L612.672 439.1ZM608.272 458.35L606.622 452.3L604.972 447.9L603.872 445.15L600.572 442.4L599.472 443.5L602.222 446.25V452.3L603.872 455.05L604.972 458.35H608.272ZM624.222 443.5L620.922 442.4L619.822 445.15L622.572 446.25L624.222 443.5ZM589.022 449.55V446.25L587.922 445.15H586.272V447.9L587.922 450.65L589.022 449.55ZM571.972 469.9L576.372 466.6V463.85L573.072 459.45V456.7L577.472 452.3H580.222L581.872 450.65L577.472 449.55H574.722L573.072 450.65L570.322 455.05L567.572 461.1L564.272 466.6L567.572 471L571.972 469.9ZM597.822 455.05L596.172 450.65L593.422 455.05H597.822ZM624.222 465.5L619.822 462.2L618.172 461.1L613.772 462.2L615.422 465.5H618.172L620.922 466.6L624.222 465.5ZM556.022 532.05L558.772 530.95L559.872 527.65L564.272 526.55L567.572 530.95L570.322 532.05L573.072 527.65V526.55L574.722 523.25L576.372 520.5L577.472 517.75L579.122 516.1H581.872L586.272 517.75L589.022 516.1L590.672 515L593.422 513.35L596.172 510.6L595.072 508.95V506.2L596.172 501.8L597.822 500.15L595.072 498.5H592.322L589.022 502.9V508.95L587.922 513.35L584.622 515L580.222 511.7L579.122 510.6L576.372 508.95L573.072 511.7L574.722 516.1L570.322 517.75L568.672 515V504.55L567.572 501.8L568.672 500.15L571.972 497.4L573.072 495.75L577.472 493L579.122 495.75L581.872 497.4L583.522 495.75L580.222 490.25L583.522 485.85L589.022 484.2L593.422 479.8V471L592.322 468.25L590.672 466.6L589.022 468.25V471L590.672 474.3V477.05L589.022 478.7L584.622 481.45H581.872L579.122 482.55L576.372 484.2L574.722 485.85L570.322 488.6L568.672 491.35H564.272L561.522 490.25H556.022L554.372 485.85V479.8L557.122 478.7L559.872 479.8L563.172 481.45L565.922 479.8L567.572 477.05L564.272 475.4H556.022L554.372 474.3L549.972 472.65L547.222 474.3V477.05L543.922 478.7L542.822 475.4L540.072 474.3L538.422 475.4L540.072 478.7V481.45L541.172 484.2V490.25L543.922 491.35L547.222 490.25L548.322 494.65L547.222 495.75L548.322 498.5L549.972 497.4L554.372 500.15L552.722 504.55L549.972 506.2L547.222 507.3H543.922L540.072 508.95L535.672 506.2V501.8H529.622L527.972 507.3V510.6L529.622 516.1V518.85L531.272 522.15L536.772 523.25L538.422 518.85L541.172 515L542.822 511.7L548.322 513.35V516.1L549.972 518.85V520.5L552.722 524.9L556.022 527.65L552.722 530.95L551.622 533.7L554.372 534.8L556.022 532.05ZM600.572 484.2L602.222 482.55L603.872 479.8L604.972 477.05L606.622 474.3V469.9H600.572L599.472 475.4V481.45L597.822 484.2H600.572ZM583.522 474.3L584.622 472.65L583.522 471L580.222 472.65H577.472V474.3H583.522ZM616.522 491.35V488.6L618.172 485.85L619.822 481.45L620.922 478.7V475.4L616.522 474.3L615.422 475.4L612.672 478.7L608.272 479.8V484.2L609.372 485.85V488.6L611.022 491.35H616.522ZM532.372 494.65V491.35L535.672 486.95L534.022 484.2H531.272L527.972 485.85L526.872 490.25V493L531.272 495.75L532.372 494.65ZM616.522 507.3L619.822 501.8L618.172 497.4H615.422L612.672 501.8V507.3L613.772 510.6L616.522 507.3ZM561.522 516.1L557.122 513.35L556.022 511.7L557.122 508.95L559.872 507.3L561.522 506.2L564.272 507.3V518.85L561.522 516.1ZM606.622 526.55L608.272 523.25L606.622 522.15L608.272 517.75L609.372 516.1L606.622 515V516.1L602.222 520.5V523.25L603.872 526.55H606.622ZM616.522 518.85L618.172 516.1L615.422 515L613.772 516.1V520.5L616.522 518.85ZM556.022 522.15L554.372 518.85L552.722 516.1H557.122L558.772 518.85L561.522 522.15L558.772 524.9L556.022 522.15ZM599.472 539.2L596.172 536.45V527.65L593.422 526.55L590.672 527.65L587.922 529.3L589.022 533.7L595.072 536.45L597.822 540.85L599.472 539.2ZM580.222 534.8L581.872 532.05L580.222 529.3H579.122L577.472 532.05V534.8H580.222ZM535.672 540.85L536.772 538.1L538.422 534.8H535.672L532.372 536.45V542.5L535.672 543.6V540.85ZM547.222 539.2L548.322 538.1L545.572 536.45V539.2H547.222ZM573.072 552.4L574.722 549.65V546.9L571.972 545.25L567.572 552.4L568.672 555.15L573.072 552.4ZM535.672 552.4L534.022 549.65L532.372 551.3V552.4H535.672ZM556.022 562.85L554.372 563.95L557.122 565.6L556.022 562.85ZM565.922 570L561.522 568.35L557.122 572.75H559.872L563.172 574.4L565.922 570ZM619.822 575.5V574.4L620.922 571.1L618.172 570L616.522 572.75V578.8L619.822 575.5ZM583.522 590.35L586.272 587.6L589.022 585.95L595.072 581.55L593.422 577.15L590.672 578.8L587.922 579.9L584.622 578.8L583.522 583.2V585.95L581.872 590.35H583.522ZM606.622 590.35L609.372 588.7L604.972 587.6H599.472V590.35H602.222L604.972 591.45L606.622 590.35ZM540.072 599.15L541.172 597.5L542.822 593.1H538.422L536.772 595.85L535.672 599.15L536.772 600.25L540.072 599.15ZM600.572 607.4L599.472 606.3L596.172 601.9H593.422L595.072 604.65L597.822 606.3V609.05L600.572 607.4ZM614.322 704.75L622.022 706.95H629.172L634.672 708.6L641.822 709.7L647.322 711.9L653.922 711.35L661.072 711.9L667.672 714.1L674.272 713.55L680.322 714.1L688.572 713.55H708.922L713.872 713L721.022 714.1L727.072 712.45H733.122L746.872 709.7L754.022 707.5L760.072 706.4L765.572 704.75L773.272 702.55L778.772 699.8L783.722 698.15L790.322 695.4L796.922 692.1L802.422 688.8L806.822 684.4L812.872 681.65L822.222 674.5L826.622 668.45L832.122 663.5L835.972 658.55L839.272 654.7L844.222 650.3L846.422 643.7L851.372 638.75L854.672 632.7L856.322 627.2L860.172 621.7L862.922 607.95L868.422 603.55L872.272 609.05L873.922 614L871.722 620.6L867.322 633.25L865.672 639.85L862.922 645.35L860.722 651.4L855.772 656.35L853.022 661.85L849.172 666.8L844.222 671.75L840.922 676.7L834.872 681.65L832.122 684.95L827.172 690.45L820.572 692.65L815.072 697.05L810.122 700.9L805.172 703.1L799.122 705.85L793.072 709.7L786.472 713L779.872 714.1L774.922 716.85L768.322 719.6L761.172 721.25H755.672L749.072 722.35L743.572 725.1L736.972 725.65L729.272 726.2L722.122 725.65L716.622 726.2L709.472 726.75H689.122L682.522 727.3L677.022 725.1L670.422 724.55L662.172 724H656.122L648.972 722.35L644.572 720.7L636.872 719.05L630.822 717.4L623.672 714.65L617.622 712.45L605.522 709.15L607.722 702.55L614.322 704.75ZM641.272 611.8V609.05L638.522 611.8H641.272ZM606.622 613.45L608.272 611.8L606.622 610.7L604.972 611.8L602.222 613.45L600.572 616.2V617.85L606.622 613.45ZM616.522 616.2V613.45H613.772V616.2H616.522ZM624.222 617.85L622.572 619.5L624.222 620.6V617.85Z" fill="white"/>
<circle cx="512.5" cy="512.5" r="458.5" stroke="white" stroke-width="12"/>
<circle cx="512.5" cy="512.5" r="431.5" stroke="white" stroke-opacity="0.8" stroke-width="12"/>
<defs>
<linearGradient id="paint0_linear" x1="971" y1="54" x2="54" y2="971" gradientUnits="userSpaceOnUse">
<stop stop-color="#FFAA65"/>
<stop offset="1" stop-color="#FF7300"/>
</linearGradient>
</defs>
</svg>
